<svg width="75" height="80" viewBox="0 0 75 80" fill="none" xmlns="http://www.w3.org/2000/svg">
<path d="M70.8333 0H4.16667C3.0616 0 2.00179 0.438987 1.22039 1.22039C0.438987 2.00179 0 3.0616 0 4.16667V14.9583C0 17.1375 0.8875 19.2792 2.42917 20.8208L25 43.3917V75C25.0008 75.7099 25.1828 76.4078 25.5287 77.0277C25.8747 77.6476 26.3731 78.1689 26.9768 78.5424C27.5806 78.9158 28.2696 79.1289 28.9788 79.1616C29.6879 79.1943 30.3936 79.0455 31.0292 78.7292L47.6958 70.3958C49.1083 69.6875 50 68.2458 50 66.6667V43.3917L72.5708 20.8208C74.1125 19.2792 75 17.1375 75 14.9583V4.16667C75 3.0616 74.561 2.00179 73.7796 1.22039C72.9982 0.438987 71.9384 0 70.8333 0V0ZM42.8875 38.7208C42.4998 39.1071 42.1924 39.5662 41.9829 40.0718C41.7733 40.5774 41.6659 41.1194 41.6667 41.6667V64.0917L33.3333 68.2583V41.6667C33.3341 41.1194 33.2267 40.5774 33.0171 40.0718C32.8076 39.5662 32.5002 39.1071 32.1125 38.7208L8.33333 14.9583V8.33333H66.6708L66.6792 14.9292L42.8875 38.7208V38.7208Z" fill="#EF233C"/>
</svg>
