<svg width="101" height="100" viewBox="0 0 101 100" fill="none" xmlns="http://www.w3.org/2000/svg">
<path d="M50.0242 6.25C25.6492 6.25 6.27417 25.625 6.27417 50C6.27417 74.375 25.6492 93.75 50.0242 93.75C74.3992 93.75 93.7742 74.375 93.7742 50C93.7742 25.625 74.3992 6.25 50.0242 6.25ZM50.0242 87.5C29.3992 87.5 12.5242 70.625 12.5242 50C12.5242 29.375 29.3992 12.5 50.0242 12.5C70.6492 12.5 87.5242 29.375 87.5242 50C87.5242 70.625 70.6492 87.5 50.0242 87.5Z" fill="#EDF2F4"/>
<path d="M66.8992 71.875L50.0242 55L33.1492 71.875L28.1492 66.875L45.0242 50L28.1492 33.125L33.1492 28.125L50.0242 45L66.8992 28.125L71.8992 33.125L55.0242 50L71.8992 66.875L66.8992 71.875Z" fill="#EDF2F4"/>
</svg>
