<svg width="76" height="76" viewBox="0 0 76 76" fill="none" xmlns="http://www.w3.org/2000/svg">
<path d="M73.7917 67.875L59.625 53.75C64.1958 47.9269 66.6759 40.7361 66.6667 33.3333C66.6667 26.7406 64.7117 20.296 61.049 14.8143C57.3863 9.3327 52.1803 5.06028 46.0895 2.53736C39.9986 0.0144427 33.2964 -0.645668 26.8303 0.640506C20.3643 1.92668 14.4249 5.10137 9.76312 9.76312C5.10137 14.4249 1.92668 20.3643 0.640506 26.8303C-0.645668 33.2964 0.0144427 39.9986 2.53736 46.0895C5.06028 52.1803 9.3327 57.3863 14.8143 61.049C20.296 64.7117 26.7406 66.6667 33.3333 66.6667C40.7361 66.6759 47.9269 64.1958 53.75 59.625L67.875 73.7917C68.2624 74.1822 68.7232 74.4922 69.2309 74.7037C69.7387 74.9153 70.2833 75.0242 70.8333 75.0242C71.3834 75.0242 71.928 74.9153 72.4357 74.7037C72.9435 74.4922 73.4043 74.1822 73.7917 73.7917C74.1822 73.4043 74.4922 72.9435 74.7037 72.4357C74.9153 71.928 75.0242 71.3834 75.0242 70.8333C75.0242 70.2833 74.9153 69.7387 74.7037 69.2309C74.4922 68.7232 74.1822 68.2624 73.7917 67.875V67.875ZM8.33335 33.3333C8.33335 28.3888 9.79957 23.5553 12.5466 19.4441C15.2936 15.3329 19.1981 12.1285 23.7663 10.2364C28.3344 8.34417 33.3611 7.84909 38.2106 8.81372C43.0601 9.77835 47.5147 12.1594 51.011 15.6557C54.5073 19.152 56.8884 23.6066 57.853 28.4561C58.8176 33.3056 58.3225 38.3323 56.4303 42.9004C54.5381 47.4686 51.3338 51.3731 47.2226 54.1201C43.1114 56.8671 38.2779 58.3333 33.3333 58.3333C26.7029 58.3333 20.3441 55.6994 15.6557 51.011C10.9673 46.3226 8.33335 39.9638 8.33335 33.3333Z" fill="#edf2f4"/>
</svg>
